# xmcd
# Copyright (C) 1995-1998 Ti Kan
#
# Track frame offsets:
#       150
#       19336
#       41749
#       63339
#       82450
#       96720
#       115385
#       135925
#       152096
#       174393
#       194733
#       216640
#       235969
#       253613
#       266157
#       289367
#       315222
#       332106
#
# Disc length: 4657 seconds
#
# Revision: 0
# Processed by: cddbd v1.5.2PL0 Copyright (c) Steve Scherf et al.
# Submitted via: CD-Transfer v1.0
#
DISCID=1f122f12
DTITLE=Church, The - S. Kilbey, M. Wilson-Piper
DYEAR=1900
DGENRE=
TTITLE0=Unguarded Moment, The
TTITLE1=Under The Milky Way
TTITLE2=Metropolis
TTITLE3=Almost With You
TTITLE4=You're Still Beautiful
TTITLE5=Russian Autumn Heart
TTITLE6=Comedown
TTITLE7=Too Fast For You
TTITLE8=Reptile
TTITLE9=Ripple
TTITLE10=Two Places At Once
TTITLE11=Terra Nova Cane
TTITLE12=Feel
TTITLE13=Monday Morning
TTITLE14=Welcome
TTITLE15=Texas Moon
TTITLE16=Spark
TTITLE17=Antenna
EXTD=
EXTT0=
EXTT1=
EXTT2=
EXTT3=
EXTT4=
EXTT5=
EXTT6=
EXTT7=
EXTT8=
EXTT9=
EXTT10=
EXTT11=
EXTT12=
EXTT13=
EXTT14=
EXTT15=
EXTT16=
EXTT17=
PLAYORDER=
